<svg width="422px" height="308px" viewBox="0 0 422 308" version="1.1" xmlns="http://www.w3.org/2000/svg" >
    <g stroke="none" stroke-width="1" fill="none" fill-rule="evenodd">
        <g transform="translate(15.000000, 15.000000)" stroke="#001833" stroke-width="30">
            <circle id="Oval-Copy-3" cx="99.5" cy="212.5" r="65.5"></circle>
            <path d="M234.271036,181.67472 C223.67946,174.314346 210.811899,170 196.936668,170 C182.353927,170 168.884239,174.765547 158,182.824247" id="Oval-Copy-4"></path>
            <circle id="Oval-Copy-5" cx="292.5" cy="212.5" r="65.5"></circle>
            <path d="M358,189.5 L391.5,189.5" id="Line-Copy-2" stroke-linecap="round"></path>
            <path d="M0,189.5 L33.5,189.5" id="Line-Copy-3" stroke-linecap="round"></path>
            <path d="M391.164064,189.311856 C357.681082,112.482048 334.320523,56.8103484 321.082386,22.2967572 C307.844249,-12.216834 287.816787,-6.66222265 261,38.9605914" id="Path-Copy-2" stroke-linecap="round"></path>
            <path d="M130.164064,189.311856 C96.6810824,112.482048 73.3205231,56.8103484 60.0823859,22.2967572 C46.8442488,-12.216834 26.8167868,-6.66222265 0,38.9605914" id="Path-Copy-3" stroke-linecap="round" transform="translate(65.082032, 94.655928) scale(-1, 1) translate(-65.082032, -94.655928) "></path>
        </g>
    </g>
</svg>
